{
  "accessors": [
    {
      "bufferView": 1,
      "componentType": 5126,
      "count": 82,
      "max": [
        94.00000762939453,
        -10.062926292419434,
        109.0
      ],
      "min": [
        -93.99999237060547,
        -13.455622673034668,
        -109.0
      ],
      "type": "VEC3"
    },
    {
      "bufferView": 1,
      "byteOffset": 984,
      "componentType": 5126,
      "count": 82,
      "max": [
        1.0,
        -0.0,
        1.0
      ],
      "min": [
        -1.0,
        -1.0,
        -1.0
      ],
      "type": "VEC3"
    },
    {
      "bufferView": 0,
      "componentType": 5125,
      "count": 198,
      "type": "SCALAR"
    },
    {
      "bufferView": 1,
      "byteOffset": 1968,
      "componentType": 5126,
      "count": 84,
      "max": [
        94.00000762939453,
        11.544413566589355,
        109.0
      ],
      "min": [
        -93.99999237060547,
        -12.555261611938477,
        -109.0
      ],
      "type": "VEC3"
    },
    {
      "bufferView": 1,
      "byteOffset": 2976,
      "componentType": 5126,
      "count": 84,
      "max": [
        1.0,
        1.0,
        1.0
      ],
      "min": [
        -1.0,
        -0.0,
        -1.0
      ],
      "type": "VEC3"
    },
    {
      "bufferView": 0,
      "byteOffset": 792,
      "componentType": 5125,
      "count": 198,
      "type": "SCALAR"
    },
    {
      "bufferView": 1,
      "byteOffset": 3984,
      "componentType": 5126,
      "count": 276,
      "max": [
        89.4732666015625,
        -9.235127449035645,
        104.37327575683594
      ],
      "min": [
        -89.47328186035156,
        -13.22241497039795,
        -104.37327575683594
      ],
      "type": "VEC3"
    },
    {
      "bufferView": 1,
      "byteOffset": 7296,
      "componentType": 5126,
      "count": 276,
      "max": [
        1.0,
        1.0,
        1.0
      ],
      "min": [
        -1.0,
        -1.0,
        -1.0
      ],
      "type": "VEC3"
    },
    {
      "bufferView": 0,
      "byteOffset": 1584,
      "componentType": 5125,
      "count": 690,
      "type": "SCALAR"
    },
    {
      "bufferView": 1,
      "byteOffset": 10608,
      "componentType": 5126,
      "count": 111,
      "max": [
        89.4732666015625,
        -7.985132217407227,
        104.37327575683594
      ],
      "min": [
        -89.47328186035156,
        -11.735151290893555,
        -104.37327575683594
      ],
      "type": "VEC3"
    },
    {
      "bufferView": 1,
      "byteOffset": 11940,
      "componentType": 5126,
      "count": 111,
      "max": [
        1.0,
        1.0,
        1.0
      ],
      "min": [
        -1.0,
        -0.0,
        -1.0
      ],
      "type": "VEC3"
    },
    {
      "bufferView": 0,
      "byteOffset": 4344,
      "componentType": 5125,
      "count": 282,
      "type": "SCALAR"
    },
    {
      "bufferView": 1,
      "byteOffset": 13272,
      "componentType": 5126,
      "count": 48,
      "max": [
        85.0428466796875,
        -9.161966323852539,
        99.89714050292969
      ],
      "min": [
        -85.0428466796875,
        -11.861985206604004,
        -99.89714050292969
      ],
      "type": "VEC3"
    },
    {
      "bufferView": 1,
      "byteOffset": 13848,
      "componentType": 5126,
      "count": 48,
      "max": [
        1.0,
        1.0,
        1.0
      ],
      "min": [
        -1.0,
        -1.0,
        -1.0
      ],
      "type": "VEC3"
    },
    {
      "bufferView": 0,
      "byteOffset": 5472,
      "componentType": 5125,
      "count": 72,
      "type": "SCALAR"
    },
    {
      "bufferView": 1,
      "byteOffset": 14424,
      "componentType": 5126,
      "count": 8,
      "max": [
        88.06527709960938,
        -10.539406776428223,
        4.49453592300415
      ],
      "min": [
        -88.08861541748047,
        -13.039408683776855,
        -4.494537830352783
      ],
      "type": "VEC3"
    },
    {
      "bufferView": 1,
      "byteOffset": 14520,
      "componentType": 5126,
      "count": 8,
      "max": [
        0.0,
        -1.0,
        -0.0
      ],
      "min": [
        0.0,
        -1.0,
        -0.0
      ],
      "type": "VEC3"
    },
    {
      "bufferView": 0,
      "byteOffset": 5760,
      "componentType": 5125,
      "count": 12,
      "type": "SCALAR"
    }
  ],
  "asset": {
    "extras": {
      "author": "1-3D.com (https://sketchfab.com/1-3D.com)",
      "license": "CC-BY-SA-4.0 (http://creativecommons.org/licenses/by-sa/4.0/)",
      "source": "https://sketchfab.com/3d-models/sliding-window-08221b33928c40ba85beadb9eb57f534",
      "title": "Sliding window"
    },
    "generator": "Sketchfab-12.78.0",
    "version": "2.0"
  },
  "bufferViews": [
    {
      "buffer": 0,
      "byteLength": 5808,
      "name": "floatBufferViews",
      "target": 34963
    },
    {
      "buffer": 0,
      "byteLength": 14616,
      "byteOffset": 5808,
      "byteStride": 12,
      "name": "floatBufferViews",
      "target": 34962
    }
  ],
  "buffers": [
    {
      "byteLength": 20424,
      "uri": "scene.bin"
    }
  ],
  "materials": [
    {
      "doubleSided": true,
      "name": "Cage_in",
      "pbrMetallicRoughness": {
        "baseColorFactor": [
          0.9,
          0.9,
          0.9,
          1.0
        ],
        "metallicFactor": 0.0
      }
    },
    {
      "doubleSided": true,
      "name": "Cage_out",
      "pbrMetallicRoughness": {
        "baseColorFactor": [
          0.92,
          0.91,
          0.86,
          1.0
        ],
        "metallicFactor": 0.0
      }
    },
    {
      "doubleSided": true,
      "name": "Frame_in",
      "pbrMetallicRoughness": {
        "baseColorFactor": [
          0.9,
          0.9,
          0.9,
          1.0
        ],
        "metallicFactor": 0.0
      }
    },
    {
      "doubleSided": true,
      "name": "Frame_out",
      "pbrMetallicRoughness": {
        "baseColorFactor": [
          0.92,
          0.91,
          0.86,
          1.0
        ],
        "metallicFactor": 0.0
      }
    },
    {
      "alphaMode": "BLEND",
      "doubleSided": true,
      "name": "Glass",
      "pbrMetallicRoughness": {
        "baseColorFactor": [
          0.8245,
          0.8245,
          0.8245,
          0.5
        ],
        "metallicFactor": 0.0,
        "roughnessFactor": 0.8434915419926713
      }
    },
    {
      "doubleSided": true,
      "name": "black-plastic",
      "pbrMetallicRoughness": {
        "baseColorFactor": [
          0.020379,
          0.020379,
          0.020379,
          1.0
        ],
        "metallicFactor": 0.0
      }
    }
  ],
  "meshes": [
    {
      "name": "Object_0",
      "primitives": [
        {
          "attributes": {
            "NORMAL": 1,
            "POSITION": 0
          },
          "indices": 2,
          "material": 0,
          "mode": 4
        }
      ]
    },
    {
      "name": "Object_1",
      "primitives": [
        {
          "attributes": {
            "NORMAL": 4,
            "POSITION": 3
          },
          "indices": 5,
          "material": 1,
          "mode": 4
        }
      ]
    },
    {
      "name": "Object_2",
      "primitives": [
        {
          "attributes": {
            "NORMAL": 7,
            "POSITION": 6
          },
          "indices": 8,
          "material": 2,
          "mode": 4
        }
      ]
    },
    {
      "name": "Object_3",
      "primitives": [
        {
          "attributes": {
            "NORMAL": 10,
            "POSITION": 9
          },
          "indices": 11,
          "material": 3,
          "mode": 4
        }
      ]
    },
    {
      "name": "Object_4",
      "primitives": [
        {
          "attributes": {
            "NORMAL": 13,
            "POSITION": 12
          },
          "indices": 14,
          "material": 4,
          "mode": 4
        }
      ]
    },
    {
      "name": "Object_5",
      "primitives": [
        {
          "attributes": {
            "NORMAL": 16,
            "POSITION": 15
          },
          "indices": 17,
          "material": 5,
          "mode": 4
        }
      ]
    }
  ],
  "nodes": [
    {
      "children": [
        1
      ],
      "matrix": [
        1.0,
        0.0,
        0.0,
        0.0,
        0.0,
        2.220446049250313e-16,
        -1.0,
        0.0,
        0.0,
        1.0,
        2.220446049250313e-16,
        0.0,
        0.0,
        0.0,
        0.0,
        1.0
      ],
      "name": "Sketchfab_model"
    },
    {
      "children": [
        2,
        3,
        4,
        5,
        6,
        7
      ],
      "name": "window_2x1_with_sliders.obj.cleaner.materialmerger.gles"
    },
    {
      "mesh": 0,
      "name": "Object_2"
    },
    {
      "mesh": 1,
      "name": "Object_3"
    },
    {
      "mesh": 2,
      "name": "Object_4"
    },
    {
      "mesh": 3,
      "name": "Object_5"
    },
    {
      "mesh": 4,
      "name": "Object_6"
    },
    {
      "mesh": 5,
      "name": "Object_7"
    }
  ],
  "scene": 0,
  "scenes": [
    {
      "name": "Sketchfab_Scene",
      "nodes": [
        0
      ]
    }
  ]
}
